Description

Sinopse e detalhes

Quando a primeira missão tripulada a Marte sofre um catastrófico e misterioso desastre, uma missão de salvamento enviada para investigar a tragédia e trazer de volta possíveis sobreviventes.

Format : Matroska
Format version : Version 2
File size : 709 MiB
Duration : 1h 53mn
Overall bit rate : 874 Kbps
Encoded date : UTC 2013-05-12 10:59:59
Writing application : mkvmerge v5.8.0 ('No Sleep / Pillow') built on Sep 2 2012 15:37:04
Writing library : libebml v1.2.3 + libmatroska v1.3.0

Video
ID : 1
Format : AVC
Format/Info : Advanced Video Codec
Format profile : High@L4.1
Format settings, CABAC : Yes
Format settings, ReFrames : 4 frames
Muxing mode : Header stripping
Codec ID : V_MPEG4/ISO/AVC
Duration : 1h 53mn
Bit rate : 473 Kbps
Width : 720 pixels
Height : 304 pixels
Display aspect ratio : 2.35:1
Frame rate mode : Constant
Frame rate : 23.976 fps
Color space : YUV
Chroma subsampling : 4:2:0
Bit depth : 8 bits
Scan type : Progressive
Bits/(Pixel*Frame) : 0.090
Stream size : 383 MiB (54%)
Title : Missão Marte ( by fantasma )
Writing library : x264 core 130 r2273 b3065e6
Encoding settings : cabac=1 / ref=3 / deblock=1:0:0 / analyse=0x3:0x113 / me=hex / subme=7 / psy=1 / psy_rd=1.00:0.00 / mixed_ref=1 / me_range=16 / chroma_me=1 / trellis=1 / 8x8dct=1 / cqm=0 / deadzone=21,11 / fast_pskip=1 / chroma_qp_offset=-2 / threads=3 / lookahead_threads=1 / sliced_threads=0 / nr=0 / decimate=1 / interlaced=0 / bluray_compat=0 / constrained_intra=0 / bframes=3 / b_pyramid=2 / b_adapt=1 / b_bias=0 / direct=1 / weightb=1 / open_gop=0 / weightp=2 / keyint=240 / keyint_min=23 / scenecut=40 / intra_refresh=0 / rc_lookahead=40 / rc=crf / mbtree=1 / crf=23.0 / qcomp=0.60 / qpmin=0 / qpmax=69 / qpstep=4 / vbv_maxrate=62500 / vbv_bufsize=78125 / crf_max=0.0 / nal_hrd=none / ip_ratio=1.40 / aq=1:1.00
Language : Portuguese
Default : Yes
Forced : No

Audio
ID : 2
Format : AC-3
Format/Info : Audio Coding 3
Mode extension : CM (complete main)
Format settings, Endianness : Big
Muxing mode : Header stripping
Codec ID : A_AC3
Duration : 1h 53mn
Bit rate mode : Constant
Bit rate : 384 Kbps
Channel(s) : 6 channels
Channel positions : Front: L C R, Side: L R, LFE
Sampling rate : 48.0 KHz
Bit depth : 16 bits
Compression mode : Lossy
Delay relative to video : 4ms
Stream size : 312 MiB (44%)
Title : by fantasma
Language : Portuguese
Default : Yes
Forced : No

Text #1
ID : 3
Format : VobSub
Muxing mode : zlib
Codec ID : S_VOBSUB
Codec ID/Info : The same subtitle format used on DVDs
Title : Spanish - (Caption/Normal Size Char)
Language : Spanish
Default : No
Forced : No

Text #2
ID : 4
Format : VobSub
Muxing mode : zlib
Codec ID : S_VOBSUB
Codec ID/Info : The same subtitle format used on DVDs
Title : Portuguese - (Caption/Normal Size Char)
Language : Portuguese
Default : No
Forced : No

Text #3
ID : 5
Format : VobSub
Muxing mode : zlib
Codec ID : S_VOBSUB
Codec ID/Info : The same subtitle format used on DVDs
Title : English - (Closed Caption/Normal Size Char)
Language : English
Default : No
Forced : No

Text #4
ID : 6
Format : VobSub
Muxing mode : zlib
Codec ID : S_VOBSUB
Codec ID/Info : The same subtitle format used on DVDs
Title : Spanish - (Caption/Normal Size Char)
Language : Spanish
Default : No
Forced : No

Text #5
ID : 7
Format : VobSub
Muxing mode : zlib
Codec ID : S_VOBSUB
Codec ID/Info : The same subtitle format used on DVDs
Title : Portuguese - (Caption/Normal Size Char)
Language : Portuguese
Default : No
Forced : No

Text #6
ID : 8
Format : UTF-8
Codec ID : S_TEXT/UTF8
Codec ID/Info : UTF-8 Plain Text
Title : Credito
Language : Portuguese
Default : Yes
Forced : No

Menu
00:00:00.000 : en:Chapter 01
00:06:12.000 : en:Chapter 02
00:11:06.334 : en:Chapter 03
00:13:25.368 : en:Chapter 04
00:14:26.669 : en:Chapter 05
00:20:30.336 : en:Chapter 06
00:25:55.204 : en:Chapter 07
00:27:33.337 : en:Chapter 08
00:31:25.839 : en:Chapter 09
00:32:45.839 : en:Chapter 10
00:33:51.839 : en:Chapter 11
00:35:12.173 : en:Chapter 12
00:38:55.842 : en:Chapter 13
00:48:07.676 : en:Chapter 14
00:50:52.676 : en:Chapter 15
00:57:17.544 : en:Chapter 16
01:01:32.545 : en:Chapter 17
01:05:42.346 : en:Chapter 18
01:10:32.513 : en:Chapter 19
01:15:02.180 : en:Chapter 20
01:18:51.180 : en:Chapter 21
01:22:18.881 : en:Chapter 22
01:25:14.682 : en:Chapter 23
01:29:23.351 : en:Chapter 24
01:35:52.018 : en:Chapter 25
01:40:34.518 : en:Chapter 26
01:44:21.219 : en:Chapter 27
01:45:25.020 : en:Chapter 28
01:53:21.020 : en:Chapter 29